<svg width="3836" height="1686" xmlns="http://www.w3.org/2000/svg">
 <g stroke="null">
  <title>Layer 1</title>
  <g stroke="null" id="svg_1">
   <path stroke="#000000" fill="#ffcc00" d="m3474.91109,1272.91967c0,-9.22703 118.88535,17.70146 0,-55.36208c-118.88538,-73.06349 -561.20432,-304.96893 -713.31234,-383.01908c-152.10797,-78.05011 -138.96818,-62.35304 -199.33565,-85.28168c-60.3674,-22.92868 -86.81506,-28.13875 -162.86906,-52.29026c-76.05397,-24.1515 -204.41565,-65.40623 -293.45489,-92.61874c-89.03924,-27.21255 -160.03686,-45.50901 -240.78053,-70.65655c-80.74365,-25.14757 -169.15435,-51.27124 -243.68142,-80.22885c-74.52704,-28.9576 -139.69066,-64.25379 -203.48092,-93.51685c-63.79023,-29.26304 -113.47843,-69.83078 -179.26047,-82.06135c-65.78204,-12.23059 -169.25446,-3.45444 -215.43174,8.67788c-46.1772,12.13235 -138.87211,19.47987 -61.63174,64.11618c77.24029,44.63627 396.7021,154.70187 525.07374,203.70154c128.37172,48.99967 169.10232,64.53845 245.15629,90.29653c76.05405,25.75807 99.91911,31.77245 211.16773,64.25195c111.24854,32.4795 292.75767,74.60455 456.32395,130.62503c163.56631,56.0205 361.50754,138.76874 525.07382,205.49787c163.56631,66.72916 380.26997,162.39748 456.32397,194.87698l94.11926,32.99148z" fill-opacity="0.25" stroke-width="0" id="svg_6"/>
  </g>
 </g>

</svg>